<?xml version="1.0" encoding="UTF-8"?>
<svg width="375px" height="390px" viewBox="0 0 375 390" version="1.1" xmlns="http://www.w3.org/2000/svg" xmlns:xlink="http://www.w3.org/1999/xlink">
    <!-- Generator: Sketch 63.1 (92452) - https://sketch.com -->
    <title>Group 2</title>
    <desc>Created with Sketch.</desc>
    <defs>
        <rect id="path-1" x="0" y="0" width="300" height="300" rx="150"></rect>
        <filter x="-26.5%" y="-19.8%" width="153.0%" height="153.0%" filterUnits="objectBoundingBox" id="filter-3">
            <feMorphology radius="0.5" operator="dilate" in="SourceAlpha" result="shadowSpreadOuter1"></feMorphology>
            <feOffset dx="0" dy="20" in="shadowSpreadOuter1" result="shadowOffsetOuter1"></feOffset>
            <feGaussianBlur stdDeviation="23" in="shadowOffsetOuter1" result="shadowBlurOuter1"></feGaussianBlur>
            <feComposite in="shadowBlurOuter1" in2="SourceAlpha" operator="out" result="shadowBlurOuter1"></feComposite>
            <feColorMatrix values="0 0 0 0 0.889860734   0 0 0 0 0.889860734   0 0 0 0 0.889860734  0 0 0 1 0" type="matrix" in="shadowBlurOuter1"></feColorMatrix>
        </filter>
    </defs>
    <g id="Page-1" stroke="none" stroke-width="1" fill="none" fill-rule="evenodd">
        <g id="onboarding-4" transform="translate(0.000000, -97.000000)">
            <g id="Group-2" transform="translate(38.000000, 122.000000)">
                <mask id="mask-2" fill="white">
                    <use xlink:href="#path-1"></use>
                </mask>
                <g id="Rectangle">
                    <use fill="black" fill-opacity="1" filter="url(#filter-3)" xlink:href="#path-1"></use>
                    <use stroke="#F4F4F4" stroke-width="1" fill="#FFFFFF" fill-rule="evenodd" xlink:href="#path-1"></use>
                </g>
                <g id="Group-16" mask="url(#mask-2)">
                    <g transform="translate(56.000000, 60.000000)">
                        <g id="achievement-(1)">
                            <polygon id="Shape" fill="#E57E25" fill-rule="nonzero" points="95.6827586 89.6 84.0965517 89.6 80.6206897 89.6 80.6206897 116.201931 84.0965517 116.201931 95.6827586 116.201931 99.1586207 116.201931 99.1586207 89.6"></polygon>
                            <path d="M130.880419,2.18160552 C130.563443,0.895793333 129.407339,-0.00582501959 128.083046,-2.80611017e-05 L51.6962648,-2.80611017e-05 C50.3719716,-0.00582501959 49.2158671,0.895793333 48.898891,2.18160552 C45.5620634,15.6392166 38.8677076,67.325749 85.464651,94.582069 C86.8072184,95.3668877 88.3345261,95.7793117 89.8896552,95.7793117 C91.4448872,95.7793117 92.9723046,95.3669267 94.3149683,94.582069 C140.911603,67.325749 134.217556,15.6392166 130.880419,2.18160552 Z" id="Shape" fill="#F0C419" fill-rule="nonzero"></path>
                            <polygon id="Shape" fill="#CB8252" fill-rule="nonzero" points="126.965517 142.124138 119.022014 142.124138 60.7572966 142.124138 52.8137931 142.124138 46.6344828 169.931034 55.9034483 169.931034 123.875862 169.931034 133.144828 169.931034"></polygon>
                            <path d="M136.234483,166.841379 L43.5448276,166.841379 C41.8384583,166.841379 40.4551724,168.224665 40.4551724,169.931034 L40.4551724,176.110345 C40.4551724,177.816714 41.8384583,179.2 43.5448276,179.2 L136.234483,179.2 C137.940852,179.2 139.324138,177.816714 139.324138,176.110345 L139.324138,169.931034 C139.324138,168.224665 137.940852,166.841379 136.234483,166.841379 Z" id="Shape" fill="#7F6E5D" fill-rule="nonzero"></path>
                            <path d="M112.444138,125.285517 C111.021283,123.485373 109.045048,122.204077 106.820966,121.639724 C103.912272,120.919965 101.469871,118.952476 100.14731,116.263724 L99.1586207,114.317241 L80.6206897,114.317241 L79.632,116.263724 C78.3094391,118.952476 75.8670383,120.919965 72.9583448,121.639724 C68.389605,122.77952 65.1808068,126.879651 65.1724138,131.588414 L65.1724138,132.855172 L114.606897,132.855172 L114.606897,131.588414 C114.604236,129.305851 113.843491,127.088823 112.444138,125.285517 L112.444138,125.285517 Z" id="Shape" fill="#F29C1F" fill-rule="nonzero"></path>
                            <path d="M47.4068966,40.1655172 L42,40.1655172 C32.6193444,40.1549605 25.0174533,32.5530694 25.0068966,23.1724138 C25.0177931,13.7918991 32.6194853,6.19020685 42,6.17931034 L47.5304828,6.17931034 C49.236852,6.17931034 50.6201379,7.56259608 50.6201379,9.26896552 C50.6201379,10.975335 49.236852,12.3586207 47.5304828,12.3586207 L42,12.3586207 C36.0318685,12.3686559 31.1962421,17.2042824 31.1862069,23.1724138 C31.1933573,29.1417426 36.0306713,33.9790565 42,33.9862069 L47.4068966,33.9862069 C49.1132658,33.9862069 50.4965517,35.3694928 50.4965517,37.0758621 C50.4965517,38.7822313 49.1132658,40.1655172 47.4068966,40.1655172 Z" id="Shape" fill="#E57E25" fill-rule="nonzero"></path>
                            <path d="M137.77931,40.1655172 L132.372414,40.1655172 C130.666045,40.1655172 129.282759,38.7822313 129.282759,37.0758621 C129.282759,35.3694928 130.666045,33.9862069 132.372414,33.9862069 L137.77931,33.9862069 C143.748639,33.9790565 148.585953,29.1417426 148.593103,23.1724138 C148.583068,17.2042824 143.747442,12.3686559 137.77931,12.3586207 L132.248828,12.3586207 C130.542458,12.3586207 129.159172,10.975335 129.159172,9.26896552 C129.159172,7.56259608 130.542458,6.17931034 132.248828,6.17931034 L137.77931,6.17931034 C147.159825,6.19020685 154.761517,13.7918991 154.772414,23.1724138 C154.761857,32.5530694 147.159966,40.1549605 137.77931,40.1655172 Z" id="Shape" fill="#E57E25" fill-rule="nonzero"></path>
                            <path d="M53.2376938,124.734323 C57.137704,121.385124 59.5972994,116.66201 60.1053793,111.546439 C61.3276469,104.544971 60.1381297,99.7794869 57.6509572,96.5146483 C57.0132972,95.6976189 55.9154015,95.3952708 54.9493628,95.7706593 C51.2346703,97.3296993 47.8709628,100.985688 46.3248993,108.082935 C45.8436695,110.283351 45.6555268,112.537742 45.7653628,114.787487 C43.2829277,111.222025 40.9423081,107.539774 38.7435034,103.740734 C42.6756696,101.124618 45.4137381,97.0596647 46.3604303,92.4325959 C48.1720404,87.5485817 47.944588,82.1413787 45.7292138,77.4267586 C45.2796708,76.5358009 44.3078185,76.0353463 43.3214455,76.18688 C39.7349738,76.9861738 36.239029,79.8997186 34.0107697,86.4788303 C33.3711594,88.3783479 32.9570845,90.3464749 32.7770703,92.3426869 C30.871371,88.3415834 29.1550676,84.2925903 27.62816,80.1957076 C31.4563883,78.2799987 34.3417375,74.8908033 35.6220248,70.8059366 C37.8367811,66.1933644 38.2512423,60.9204971 36.7843531,56.0185379 C36.5235284,55.0883392 35.7178953,54.4140327 34.7563034,54.3210814 C31.4312166,54.387509 27.9399062,56.5586097 25.1258483,62.5543945 C24.3983731,64.1132046 23.8290869,65.7410528 23.4265379,67.4134952 C22.799029,65.2040828 22.1956193,62.9909628 21.6818097,60.7824772 L21.0020855,57.8710952 C22.1936983,51.8876736 22.220763,45.730648 21.0817986,39.7369821 C19.4099862,29.0779807 16.3363972,20.0827586 12.9016276,18.537931 C9.53853793,20.1173628 6.78905379,30.0478234 8.00545103,41.7396966 C8.90608552,50.6345048 12.0343614,57.7502897 15.3446179,60.81152 L15.6640883,62.1839448 C16.2239338,64.5901683 16.875851,67.0007172 17.5645352,69.4060138 C16.3230853,68.1731601 14.9981957,67.0272762 13.5992717,65.9764966 C8.28506483,61.9330648 4.29014069,61.0559117 1.29410207,62.8340083 C0.430525992,63.615485 0.0650315873,64.8075827 0.34217931,65.9388028 C1.26021207,71.9955666 4.72499192,77.3704561 9.86233379,80.7073545 C14.8644855,83.9629241 19.0135834,84.0729159 21.9428855,82.6343724 C23.5442538,86.912 25.3541738,91.1565683 27.3550345,95.3300745 C25.6690055,94.2060932 23.890479,93.2274748 22.0386648,92.404789 C15.7218648,89.5511834 11.2427917,89.5678676 8.25416828,91.9876855 C7.44960372,92.8835134 7.22771979,94.160336 7.68289103,95.2750786 C9.65520362,101.166455 14.222158,105.826799 20.0724083,107.917948 C24.3970244,110.019906 29.5083199,109.693094 33.5300193,107.057479 C35.8401545,111.037572 38.3056993,114.902731 40.9034814,118.615261 C38.7946094,117.715827 36.6027589,117.024981 34.3592828,116.552607 C27.269451,114.99264 22.4733793,115.954759 19.6083421,119.013517 C18.8743166,120.021257 18.8085286,121.368576 19.4408828,122.443034 C22.4460088,128.042188 27.9722774,131.843418 34.2758621,132.647239 C39.3875241,133.88114 44.7758398,132.431102 48.5778759,128.798455 C50.2011807,130.810748 51.8995641,132.830146 53.7993931,134.928022 L55.8722428,137.219619 L60.4542014,133.072375 L58.3798069,130.782323 C56.5009876,128.70731 54.8301021,126.716954 53.2376938,124.734323 Z" id="Shape" fill="#24AE5F" fill-rule="nonzero"></path>
                            <path d="M126.541617,124.734323 C122.641606,121.385124 120.182011,116.66201 119.673931,111.546439 C118.451663,104.544971 119.641181,99.7794869 122.128044,96.5146483 C122.765748,95.697479 123.863822,95.3951164 124.829948,95.7706593 C128.54464,97.3296993 131.908348,100.985688 133.454411,108.082935 C133.935641,110.283351 134.123784,112.537742 134.013948,114.787487 C136.496383,111.222025 138.837002,107.539774 141.035807,103.740734 C137.103524,101.124677 134.365339,97.059715 133.418571,92.4325959 C131.607331,87.549233 131.834442,82.1428645 134.048861,77.4286124 C134.498404,76.5376547 135.470256,76.0372001 136.456629,76.1887338 C140.043101,76.9880276 143.539046,79.9015724 145.766996,86.4806841 C146.406846,88.3801519 146.821029,90.3482953 147.001004,92.3445407 C148.906703,88.3434372 150.623007,84.2944441 152.149914,80.1975614 C148.321686,78.2818525 145.436337,74.8926571 144.15605,70.8077903 C141.941293,66.1952182 141.526832,60.9223509 142.993721,56.0203917 C143.254546,55.0901929 144.060179,54.4158865 145.021771,54.3229352 C148.346858,54.3893628 151.838168,56.5604634 154.652226,62.5562483 C155.379701,64.1150584 155.948988,65.7429066 156.351537,67.415349 C156.979046,65.2059366 157.582455,62.9928166 158.096265,60.784331 L158.775989,57.872949 C157.584376,51.8895274 157.557312,45.7325018 158.696276,39.7388359 C160.369324,29.0779807 163.442913,20.0827586 166.877683,18.537931 C170.240772,20.1173628 172.990257,30.0478234 171.773859,41.7396966 C170.873225,50.6345048 167.744949,57.7502897 164.434692,60.81152 L164.115222,62.1839448 C163.555377,64.5901683 162.90315,67.0007172 162.214775,69.4060138 C163.456225,68.1731601 164.781115,67.0272762 166.180039,65.9764966 C171.494246,61.9330648 175.48917,61.0559117 178.485208,62.8340083 C179.348784,63.615485 179.714279,64.8075827 179.437131,65.9388028 C178.519098,71.9955666 175.054318,77.3704561 169.916977,80.7073545 C164.914825,83.9629241 160.765727,84.0729159 157.836425,82.6343724 C156.235674,86.9132359 154.425754,91.1574952 152.42613,95.3310014 C154.112081,94.2068924 155.890619,93.2282677 157.742499,92.4057159 C164.059299,89.5521103 168.538372,89.5687945 171.526996,91.9886124 C172.33156,92.8844403 172.553445,94.1612629 172.098273,95.2760055 C170.125961,101.167382 165.559006,105.827725 159.708756,107.918874 C155.38414,110.020833 150.272844,109.694021 146.251145,107.058406 C143.94101,111.038499 141.475465,114.903658 138.877374,118.616188 C140.986278,117.716841 143.17812,117.025998 145.421572,116.553534 C152.509241,114.993567 157.305004,115.956612 160.170041,119.015371 C160.90352,120.022583 160.969421,121.369008 160.33781,122.443034 C157.332728,128.041954 151.806767,131.843131 145.503448,132.647239 C140.391786,133.88114 135.003471,132.431102 131.201434,128.798455 C129.57813,130.810748 127.879746,132.830146 125.979917,134.928022 L123.907068,137.219619 L119.325727,133.071448 L121.400121,130.781396 C123.278323,128.70731 124.949208,126.716954 126.541617,124.734323 L126.541617,124.734323 Z" id="Shape" fill="#24AE5F" fill-rule="nonzero"></path>
                            <path d="M126.965517,132.855172 L52.8137931,132.855172 C51.1074238,132.855172 49.7241379,134.238458 49.7241379,135.944828 L49.7241379,142.124138 C49.7241379,143.830507 51.1074238,145.213793 52.8137931,145.213793 L126.965517,145.213793 C128.671887,145.213793 130.055172,143.830507 130.055172,142.124138 L130.055172,135.944828 C130.055172,134.238458 128.671887,132.855172 126.965517,132.855172 Z" id="Shape" fill="#7F6E5D" fill-rule="nonzero"></path>
                        </g>
                        <g id="Group-15" transform="translate(67.200000, 15.050000)">
                            <path d="M38.0895641,37.0600851 L7.21417021,37.0600851 C6.64620511,37.0600851 6.18575285,37.5205374 6.18469123,38.0885025 L6.18063619,41.0903694 C6.17967268,42.2132706 6.61590077,43.268904 7.4091217,44.06309 C8.20330774,44.8583377 9.25787949,45.2956274 10.3808773,45.2956274 L34.9187071,45.2956274 C37.2349624,45.2956274 39.1189466,43.4116432 39.1189466,41.0953879 L39.1189466,38.0894676 C39.1189466,37.5205374 38.6585908,37.0600851 38.0895641,37.0600851 Z" id="Path" fill="#F29C1F" fill-rule="nonzero"></path>
                            <path d="M33.9717447,4.1178194 C33.3414337,4.1178194 32.6939438,4.18113038 32.0083323,4.30881396 C29.6528936,1.5622177 26.277048,-1.71894499e-14 22.647862,-1.71894499e-14 C15.8358516,-1.71894499e-14 10.2945003,5.54135132 10.2945003,12.3533617 C10.2945003,12.9213268 9.83308289,13.3828407 9.26502128,13.3828407 C8.69705617,13.3828407 8.2355423,12.9214233 8.2355423,12.3533617 C8.2355423,10.124545 8.74830332,7.96811132 9.7596383,5.94447626 C9.93963064,5.58458809 9.89330553,5.15328204 9.64199183,4.83962247 C9.39067813,4.52798962 8.9794463,4.38920732 8.58944681,4.48475285 C3.5317103,5.74643643 -7.73525244e-14,10.2522286 -7.73525244e-14,15.4417021 C-7.73525244e-14,19.7203083 2.41276596,23.60988 6.20080851,25.5330475 L6.18970979,33.9706831 C6.18970979,34.2431326 6.29731915,34.505545 6.49034043,34.6995314 C6.68432681,34.8925527 6.94577413,35.0011271 7.21918877,35.0011271 L38.0895641,35.0011271 C38.6585908,35.0011271 39.1190431,34.5406749 39.1190431,33.9716482 L39.1190431,25.5178953 C42.8929951,23.5897093 45.2957239,19.7061212 45.2957239,15.4416056 C45.2957239,9.19765685 40.21579,4.1178194 33.9717447,4.1178194 Z M15.0656967,28.5912766 C14.8736405,28.7481064 14.6424975,28.8245428 14.4132848,28.8245428 C14.1157425,28.8245428 13.8201304,28.6958941 13.6161069,28.4485374 C13.2762929,28.0333486 10.2945003,24.3217425 10.2945003,21.618383 C10.2945003,21.0493563 10.7549525,20.588904 11.3239792,20.588904 C11.893006,20.588904 12.3534582,21.0493563 12.3534582,21.618383 C12.3534582,23.1083142 14.1047403,25.7965215 15.2085324,27.1415903 C15.5683241,27.5819683 15.5050131,28.2303268 15.0656967,28.5912766 Z M23.6772444,27.7950638 C23.6772444,28.3640906 23.2167922,28.8245428 22.6477654,28.8245428 C22.0787387,28.8245428 21.618383,28.3640906 21.618383,27.7950638 L21.618383,21.618383 C21.618383,21.0493563 22.0788352,20.588904 22.647862,20.588904 C23.2168887,20.588904 23.6773409,21.0493563 23.6773409,21.618383 L23.6773409,27.7950638 L23.6772444,27.7950638 Z M31.679617,28.4485374 C31.475497,28.6958941 31.1809466,28.8245428 30.8834043,28.8245428 C30.6532264,28.8245428 30.4219869,28.7481064 30.2309923,28.5912766 C29.7916759,28.2303268 29.7273033,27.5819683 30.0871915,27.1426519 C31.1910802,25.7944948 32.9422657,23.1032957 32.9422657,21.618383 C32.9422657,21.0493563 33.402718,20.588904 33.9717447,20.588904 C34.5407714,20.588904 35.0012237,21.0493563 35.0012237,21.618383 C35.0012237,24.321646 32.019431,28.0333486 31.679617,28.4485374 Z" id="Shape" fill="#F29C1F" fill-rule="nonzero"></path>
                        </g>
                    </g>
                </g>
            </g>
        </g>
    </g>
</svg>