<?xml version="1.0" encoding="UTF-8"?>
<svg width="202px" height="52px" viewBox="0 0 202 52" version="1.1" xmlns="http://www.w3.org/2000/svg" xmlns:xlink="http://www.w3.org/1999/xlink">
    <!-- Generator: Sketch 63.1 (92452) - https://sketch.com -->
    <title>БОРЩ</title>
    <desc>Created with Sketch.</desc>
    <g id="Page-1" stroke="none" stroke-width="1" fill="none" fill-rule="evenodd">
        <g id="onboarding-1" transform="translate(-32.000000, -44.000000)" fill="#000000" fill-rule="nonzero">
            <path d="M53.2988281,87.2128906 C58.2597656,87.2128906 62.2539062,85.8847656 65.28125,83.2285156 C68.3085938,80.5722656 69.8222656,77.3007812 69.8222656,73.4140625 C69.8222656,69.5273438 68.3085938,66.2558594 65.28125,63.5996094 C62.2539062,60.9433594 58.2597656,59.6152344 53.2988281,59.6152344 L53.2988281,59.6152344 L47.6152344,59.6152344 L47.6152344,57.2128906 L65.6035156,57.2128906 L65.6035156,45.2011719 L32,45.2011719 L32,87.2128906 L53.2988281,87.2128906 Z M52.0976562,75.2011719 L47.6152344,75.2011719 L47.6152344,71.6269531 L52.0976562,71.6269531 C52.703125,71.6269531 53.2060547,71.8027344 53.6064453,72.1542969 C54.0068359,72.5058594 54.2070312,72.9257812 54.2070312,73.4140625 C54.2070312,73.9023438 54.0068359,74.3222656 53.6064453,74.6738281 C53.2060547,75.0253906 52.703125,75.2011719 52.0976562,75.2011719 L52.0976562,75.2011719 Z M96.7900391,88.4140625 C103.59668,88.4140625 109.299805,86.2314453 113.899414,81.8662109 C118.499023,77.5009766 120.798828,72.28125 120.798828,66.2070312 C120.798828,60.1328125 118.494141,54.9179688 113.884766,50.5625 C109.294922,46.1875 103.59668,44 96.7900391,44 C89.9833984,44 84.2802734,46.1826172 79.6806641,50.5478516 C75.0810547,54.9130859 72.78125,60.1328125 72.78125,66.2070312 C72.78125,72.28125 75.0810547,77.5009766 79.6806641,81.8662109 C84.2802734,86.2314453 89.9833984,88.4140625 96.7900391,88.4140625 Z M96.7900391,74.6152344 C94.5537109,74.6152344 92.5957031,73.7753906 90.9160156,72.0957031 C89.2363281,70.4160156 88.3964844,68.4580078 88.3964844,66.2216797 C88.3964844,63.9853516 89.2363281,62.0224609 90.9160156,60.3330078 C92.5957031,58.6435547 94.5537109,57.7988281 96.7900391,57.7988281 C99.0263672,57.7988281 100.984375,58.6435547 102.664062,60.3330078 C104.34375,62.0224609 105.183594,63.9853516 105.183594,66.2216797 C105.183594,68.4580078 104.34375,70.4160156 102.664062,72.0957031 C100.984375,73.7753906 99.0263672,74.6152344 96.7900391,74.6152344 Z M142.390625,87.2128906 L142.390625,76.4023438 L147.488281,76.4023438 C152.644531,76.4023438 156.785156,74.9423828 159.910156,72.0224609 C163.035156,69.1025391 164.597656,65.3623047 164.597656,60.8017578 C164.597656,56.2412109 163.035156,52.5009766 159.910156,49.5810547 C156.785156,46.6611328 152.644531,45.2011719 147.488281,45.2011719 L147.488281,45.2011719 L126.775391,45.2011719 L126.775391,87.2128906 L142.390625,87.2128906 Z M146.287109,63.21875 L142.390625,63.21875 L142.390625,58.4140625 L146.287109,58.4140625 C147.009766,58.4140625 147.639648,58.6630859 148.176758,59.1611328 C148.713867,59.6591797 148.982422,60.2109375 148.982422,60.8164062 C148.982422,61.421875 148.713867,61.9736328 148.176758,62.4716797 C147.639648,62.9697266 147.009766,63.21875 146.287109,63.21875 L146.287109,63.21875 Z M233.269531,95.0058594 L233.269531,73.4140625 L228.757812,73.4140625 L228.757812,45.2011719 L213.171875,45.2011719 L213.171875,73.4140625 L207.166016,73.4140625 L207.166016,45.2011719 L191.580078,45.2011719 L191.580078,73.4140625 L185.574219,73.4140625 L185.574219,45.2011719 L169.958984,45.2011719 L169.958984,87.2128906 L217.683594,87.2128906 L217.683594,95.0058594 L233.269531,95.0058594 Z" id="БОРЩ"></path>
        </g>
    </g>
</svg>