<svg width="24px" height="24px" viewBox="0 0 24 24" version="1.1" xmlns="http://www.w3.org/2000/svg" xmlns:xlink="http://www.w3.org/1999/xlink">
  <g id="serving-dish-4-copy" transform="translate(1.000000, 3.000000)" fill-rule="nonzero">
    <path d="M21.4144737,13.125 C20.3637397,13.125 1.71959087,13.125 0.690789474,13.125 C0.309128289,13.125 0,13.4341283 0,13.8157895 C0,14.1974507 0.309128289,14.5065789 0.690789474,14.5065789 L1.18988487,14.5065789 L2.12158717,16.835403 C2.22650082,17.097903 2.4807977,17.2697368 2.76315789,17.2697368 L19.3421053,17.2697368 C19.6244655,17.2697368 19.8787623,17.097903 19.983676,16.835403 L20.9153783,14.5065789 L21.4144737,14.5065789 C21.7961349,14.5065789 22.1052632,14.1974507 22.1052632,13.8157895 C22.1052632,13.4341283 21.7961349,13.125 21.4144737,13.125 Z" id="Path"></path>
    <path d="M21.0630345,11.7434211 C20.9775493,9.1974301 19.9456826,6.81636513 18.1353824,5.00606497 C14.2230962,1.09373561 7.8866139,1.08928865 3.96988076,5.00606497 C2.15958059,6.81636513 1.12771382,9.1974301 1.04222862,11.7434211 L21.0630345,11.7434211 Z" id="Path"></path>
    <path d="M11.0526316,3.45394737 C10.6711431,3.45394737 10.3618421,3.14468956 10.3618421,2.76315789 L10.3618421,0.690789474 C10.3618421,0.309257812 10.6711431,0 11.0526316,0 C11.4341632,0 11.7434211,0.309257812 11.7434211,0.690789474 L11.7434211,2.76315789 C11.7434211,3.14468956 11.4341632,3.45394737 11.0526316,3.45394737 Z" id="Path"></path>
    <path d="M12.4342105,1.38157895 L9.67105263,1.38157895 C9.28956414,1.38157895 8.98026316,1.07232113 8.98026316,0.690789474 C8.98026316,0.309257812 9.28956414,0 9.67105263,0 L12.4342105,0 C12.8157422,0 13.125,0.309257812 13.125,0.690789474 C13.125,1.07232113 12.8157422,1.38157895 12.4342105,1.38157895 Z" id="Path"></path>
  </g>
</svg>
