<svg xmlns="http://www.w3.org/2000/svg" width="37" height="37" viewBox="0 0 37 37">
    <g fill="none" fill-rule="evenodd">
        <circle cx="18.2" cy="18.2" r="18.2" fill="#0A84FF"/>
        <path fill="#FFF" fill-rule="nonzero" d="M24.08 16.94h-4.76c-.155 0-.28-.125-.28-.28V11.9c0-.773-.627-1.4-1.4-1.4-.773 0-1.4.627-1.4 1.4v4.76c0 .155-.125.28-.28.28H11.2c-.773 0-1.4.627-1.4 1.4 0 .773.627 1.4 1.4 1.4h4.76c.155 0 .28.125.28.28v4.76c0 .773.627 1.4 1.4 1.4.773 0 1.4-.627 1.4-1.4v-4.76c0-.155.125-.28.28-.28h4.76c.773 0 1.4-.627 1.4-1.4 0-.773-.627-1.4-1.4-1.4z"/>
    </g>
</svg>
