<svg xmlns="http://www.w3.org/2000/svg" width="24" height="24" viewBox="0 0 24 24">
    <g>
        <path d="M21.554 9.692H2.077C.932 9.692 0 10.624 0 11.77c0 1.672 1.191 3.07 2.77 3.392v5.008c0 1.909 1.552 3.462 3.46 3.462H17.4c1.909 0 3.462-1.553 3.462-3.462v-5.008c1.578-.322 2.769-1.72 2.769-3.392 0-1.145-.932-2.077-2.077-2.077zM1.384 11.77c0-.382.311-.692.693-.692h.692v2.642c-.804-.287-1.384-1.048-1.384-1.95zm19.478 1.95v-2.642h.692c.382 0 .692.31.692.692 0 .902-.58 1.663-1.384 1.95zM2.879 7.905c.16.35.576.498.918.34l15.139-6.923c.348-.16.5-.572.34-.919-.16-.347-.572-.5-.919-.339l-5.077 2.29C12.64.965 10.993.356 9.607.998c-1.39.639-1.997 2.281-1.358 3.674l-5.03 2.316c-.348.16-.5.57-.34.918zM19.24 3.699c0-.383-.31-.692-.693-.692-.13 0-1.286.02-1.959.692-.672.673-.692 1.829-.692 1.958 0 .242-.083.777-.286.98-.192.191-.7.284-.98.286-.382 0-.692.31-.692.692 0 .383.31.693.693.693.13 0 1.285-.02 1.958-.693.672-.672.692-1.828.692-1.958 0-.24.085-.776.287-.98.191-.19.697-.283.98-.286.383 0 .692-.31.692-.692zM18.785 8.308c.13 0 1.285-.02 1.958-.693.672-.672.692-1.828.692-1.958 0-.24.084-.776.287-.98.19-.19.697-.283.98-.286.382 0 .691-.31.691-.692 0-.383-.31-.692-.692-.692-.13 0-1.286.02-1.96.692-.671.673-.69 1.829-.69 1.958 0 .242-.085.777-.287.98-.192.191-.7.284-.98.286-.382 0-.692.31-.692.692 0 .383.31.693.693.693z"/>
    </g>
</svg>
