<svg xmlns="http://www.w3.org/2000/svg" width="25" height="24" viewBox="0 0 25 24">
    <g fill="none" fill-rule="evenodd">
        <circle cx="12.4" cy="12" r="12" fill="#979797" opacity=".104"/>
        <path fill="#E02020" fill-rule="nonzero" d="M14.207 17.212c.786 0 1.265-.424 1.301-1.215l.294-6.39h.416c.303 0 .524-.217.524-.516 0-.293-.221-.506-.524-.506H14.31v-.497c0-.777-.552-1.288-1.456-1.288h-1.473c-.9 0-1.455.51-1.455 1.288v.497H8.024c-.298 0-.524.213-.524.506 0 .299.226.515.524.515h.416l.294 6.395c.036.787.515 1.211 1.301 1.211h4.172zm-.963-8.627h-2.25l.008-.465c0-.235.177-.398.434-.398h1.37c.257 0 .429.163.434.398l.004.465zm.818 7.588H10.18c-.235 0-.384-.163-.398-.43l-.284-6.137h5.242l-.28 6.138c-.01.27-.158.43-.398.43zm-.624-.65c.204 0 .353-.168.362-.398l.136-4.443c.004-.226-.15-.402-.353-.402-.199 0-.357.18-.366.398l-.136 4.438c-.004.226.154.406.357.406zm-2.634 0c.208 0 .366-.181.357-.407l-.136-4.438c-.009-.217-.167-.398-.366-.398-.203 0-.357.176-.348.402l.136 4.443c.004.23.158.397.357.397zm1.32 0c.194 0 .356-.181.356-.398v-4.447c0-.217-.162-.398-.357-.398-.199 0-.361.18-.361.398v4.447c0 .217.162.397.361.397z"/>
    </g>
</svg>
